<svg width="30" height="23" viewBox="0 0 30 23" fill="none" xmlns="http://www.w3.org/2000/svg">
<path d="M26.8173 6.5H28.691L23.691 16.5H11.309L4.94721 3.77639L4.80902 3.5H4.5H0.5V2.5H6.18538L12.0492 14.7164L12.1854 15H12.5H22.5H22.8173L22.9524 14.7129L26.8173 6.5Z" fill="white" stroke="white"/>
<circle cx="12" cy="20.5" r="2" fill="white"/>
<path d="M24.5 20.563C24.5 21.6676 23.6046 22.563 22.5 22.563C21.3954 22.563 20.5 21.6676 20.5 20.563C20.5 19.4584 21.3954 18.563 22.5 18.563C23.6046 18.563 24.5 19.4584 24.5 20.563Z" fill="white"/>
<path d="M20.2 5C20.2 6.2367 19.8478 7.32201 19.3195 8.07676C18.7894 8.83405 18.1338 9.2 17.5 9.2C16.8662 9.2 16.2106 8.83405 15.6805 8.07676C15.1522 7.32201 14.8 6.2367 14.8 5C14.8 3.7633 15.1522 2.67799 15.6805 1.92324C16.2106 1.16595 16.8662 0.8 17.5 0.8C18.1338 0.8 18.7894 1.16595 19.3195 1.92324C19.8478 2.67799 20.2 3.7633 20.2 5Z" stroke="#F08804" stroke-width="1.6"/>
</svg>
